<svg viewBox="0 0 12 12" width="60px" height="60px" xmlns="http://www.w3.org/2000/svg"><path fill-rule="evenodd" d="M 0,0 3,0 3,2 9,2 9,0 12,0 12,3 9,3 9,4 10,4 10,7 11,7 11,11 9,11 9,12 3,12 3,11 1,11 1,7 2,7 2,4 3,4 3,3 0,3z" fill="#B6D94C"/><path fill-rule="evenodd" d="M 1,1 2,1 2,2 1,2z" fill="#ffffff"/><path fill-rule="evenodd" d="M 10,1 11,1 11,2 10,2z" fill="#ffffff"/><path fill-rule="evenodd" d="M 4,3 5,3 5,4 4,4z" fill="#ffffff"/><path fill-rule="evenodd" d="M 7,3 8,3 8,4 7,4z" fill="#ffffff"/><path fill-rule="evenodd" d="M 3,5 4,5 4,8 3,8z" fill="#ffffff"/><path fill-rule="evenodd" d="M 5,5 7,5 7,6 5,6z" fill="#ffffff"/><path fill-rule="evenodd" d="M 8,5 9,5 9,8 8,8z" fill="#ffffff"/><path fill-rule="evenodd" d="M 5,7 7,7 7,8 5,8z" fill="#ffffff"/><path fill-rule="evenodd" d="M 2,8 3,8 3,10 2,10z" fill="#ffffff"/><path fill-rule="evenodd" d="M 9,8 10,8 10,10 9,10z" fill="#ffffff"/><path fill-rule="evenodd" d="M 4,10 5,10 5,11 4,11z" fill="#ffffff"/><path fill-rule="evenodd" d="M 7,10 8,10 8,11 7,11z" fill="#ffffff"/></svg>